<svg xmlns="http://www.w3.org/2000/svg" viewBox="0 0 24 24" fill="currentColor">
  <path d="M19 3h-4.18C14.4 1.84 13.3 1 12 1s-2.4.84-2.82 2H5c-1.1 0-2 .9-2 2v14c0 1.1.9 2 2 2h14c1.1 0 2-.9 2-2V5c0-1.1-.9-2-2-2zm-7 0c.55 0 1 .45 1 1s-.45 1-1 1-1-.45-1-1 .45-1 1-1z"/>
  <path d="M7 12l1.5-1.5M8.5 10.5L7 9M7 9l1.5 1.5M8.5 10.5L7 12" stroke="currentColor" stroke-width="1.5" fill="none"/>
  <path d="M7 17l1.5-1.5M8.5 15.5L7 14M7 14l1.5 1.5M8.5 15.5L7 17" stroke="currentColor" stroke-width="1.5" fill="none"/>
  <path d="M16 12l1.5-1.5M17.5 10.5L16 9M16 9l1.5 1.5M17.5 10.5L16 12" stroke="currentColor" stroke-width="1.5" fill="none"/>
  <path d="M16 17l1.5-1.5M17.5 15.5L16 14M16 14l1.5 1.5M17.5 15.5L16 17" stroke="currentColor" stroke-width="1.5" fill="none"/>
  <circle cx="12" cy="10" r="1.5"/>
  <circle cx="12" cy="15" r="1.5"/>
  <path d="M10 11.5l-1.5 1.5M14 11.5l1.5 1.5" stroke="currentColor" stroke-width="1" fill="none"/>
</svg>

